<svg width="27" height="27" viewBox="0 0 27 27" fill="none" xmlns="http://www.w3.org/2000/svg">
<circle r="13.5" transform="matrix(-1 0 0 1 13.5 13.5)" fill="#C4C4C4" fill-opacity="0.05"/>
<circle r="13" transform="matrix(-1 0 0 1 13.5 13.5)" stroke="white" stroke-opacity="0.5"/>
<path d="M9.20895 13.8536C9.01368 13.6583 9.01368 13.3417 9.20895 13.1464L12.3909 9.96447C12.5862 9.7692 12.9028 9.7692 13.098 9.96447C13.2933 10.1597 13.2933 10.4763 13.098 10.6716L10.2696 13.5L13.098 16.3284C13.2933 16.5237 13.2933 16.8403 13.098 17.0355C12.9028 17.2308 12.5862 17.2308 12.3909 17.0355L9.20895 13.8536ZM17.4375 14H9.5625V13H17.4375V14Z" fill="#F4F4ED"/>
</svg>





